<?xml version="1.0" encoding="utf-8"?>
<!-- Generator: Adobe Illustrator 16.0.0, SVG Export Plug-In . SVG Version: 6.00 Build 0)  -->
<!DOCTYPE svg PUBLIC "-//W3C//DTD SVG 1.1//EN" "http://www.w3.org/Graphics/SVG/1.1/DTD/svg11.dtd">
<svg version="1.1" id="Layer_1" xmlns="http://www.w3.org/2000/svg" xmlns:xlink="http://www.w3.org/1999/xlink" x="0px" y="0px"
	 width="234.381px" height="141.08px" viewBox="-2.287 -1.457 234.381 141.08"
	 enable-background="new -2.287 -1.457 234.381 141.08" xml:space="preserve">
<g>
	<g>
		<path fill="#231F20" d="M123.085,4.617c0.097,0.117,0.15,0.251,0.16,0.403c0.128-0.363,0.413-0.795,0.672-1.078
			c0.082-0.088-0.226,1.063-0.354,0.918c-0.21,0.232-0.06,0.217-0.121,0.732c0.078-0.163,0.244,0.237,0.235,0.389
			c0.048-0.153,0.147,0.086,0.57,0.213c-0.089,0.126-0.111,0.266-0.067,0.42c0.131-0.444,0.459,0.353,0.472,0.27
			c-0.082,0.491-0.207,0.609-0.193,1.279c0.051,0.304-0.35,0.273-0.226,0.054c-0.362-0.114-0.056,0.684-0.048,0.717
			c0.063-0.084,0.02,0.515-0.021,0.182c-0.25,0.752-0.341,1.221-0.509,1.866c-0.128,0.269,0.325,0.53,0.13,0.793
			c0.267-0.36,0.277-0.679,0.505-1.165c0.036,0.187,0.095,0.184,0.179-0.013c0.264,0.623-0.588,2.416-0.743,2.507
			c0.033-0.289,0.031-0.578-0.001-0.865c-0.479,0.337-0.278,3.618-0.486,4.571c0.458-0.733,0.216-0.49,0.338-1.303
			c0.106-0.131,0.591,0.059,0.12,0.927c-0.181,0.515-0.464,1.947-0.54,2.132c-0.088,0.181-0.239,1.042-0.136,1.287
			c0.038-0.327,0.36-1.443,0.603-1.598c-0.026,0.531-0.102,1.072-0.217,1.77c0.01-0.023-0.699,2.493-0.116,2.718
			c0.187-0.53,0.389-2.169,0.691-2.753c0.07,0.031,0.161,0.528,0.154,0.595c-0.274,1.165-0.483,2.256-0.416,2.135
			c-0.417,0.081-0.202,1.052-0.211,1.402c-0.063,0.945-0.08,3.718-0.1,4.49c-0.052,1.941,0.409,1.438-0.384,3.275
			c0.232-2.111,0.148-1.898-0.153-3.477c-0.689,1.209-0.51,4.01-0.737,5.388c-0.065-0.676-0.474,1.519-0.351,1.56
			c0.077,0.271-0.133,0.734-0.188,0.691c-0.136,1.703-0.44,4.228-0.436,4.785c-0.005,1.433,1.56,1.483,1.881,1.332
			c2.155-1.021,3.83-2.575,5.023-4.649c2.774-4.831,3.046-11.04,2.689-16.461c-0.383-5.804-1.599-11.589-3.777-16.984
			c-0.374-0.929-1.679-4.061-2.91-2.235C123.615,2.509,123.132,4.545,123.085,4.617"/>
		<path fill="#231F20" d="M107.469,37.002c-0.038-0.404-0.23-1.886-0.666-1.857c-0.607-0.823-0.447-2.865-0.443-2.846
			c0.076-0.723,0.048-1.281,0.12-1.907c-0.141,0.195-0.27-0.532-0.187-0.749c-0.162,0.425-0.051,0.321-0.219,1.216
			c-0.045-0.222-0.064-0.448-0.058-0.675c-0.026,0.111-0.016-0.343-0.04-0.208c0.025-0.184,0.17-1.578,0.229-1.639
			c-0.008,0.285,0.02,0.566,0.082,0.845c0.34-0.408-0.051-1.484-0.051-1.869c-0.026-0.185,0.435-2.017-0.033-2.664
			c-0.074,0.422-0.075,0.533-0.075,1.321c0.007-0.343-0.271-0.683-0.178-1.067c-0.042-0.358,0.259-2.654,0.241-3.146
			c-0.078,0.435-0.129-0.726-0.3-1.672c-0.055,0.421,0.001,1.147-0.119,1.604c0.002-0.244-0.005-0.485-0.021-0.727
			c-0.222,1.437-0.197-0.255-0.201-0.478c-0.005-0.32,0.122-1.428,0.269-1.668c-0.055,0.029-0.384-2.502-0.465-3.104
			c0.137,0.356,0.407,2.598,0.522,2.598c-0.1-1.365,0.085-2.989-0.388-4.354c0.039,0.387,0.037,0.774-0.007,1.161
			c0,0.011-0.253-1.391-0.058-1.359c0.058-0.439-0.262-1.328-0.482-1.681c0.051,0.28,0.058,0.585,0.116,0.872
			c-0.109-0.239-0.207-0.483-0.292-0.732c0.223,0.975-0.068,0.479,0.14,1.458c-0.819-3.113-0.653-5.576-2.562-7.325
			c0.154,0.261,0.854,1.307,0.773,1.69c-0.088-0.449-0.742-1.678-0.994-1.859c0.361,0.656-0.327-0.178-0.553-0.284
			c0.219,0.218,0.918,1.978,1.193,2.221c0.703,1.047,1.838,6.756,1.734,7.171c-0.261-1.325-1.211-6.244-1.566-6.505
			c0.533,2.271,1.006,4.478,1.109,6.318c-0.669-2.733-0.539-4.631-1.695-6.638c0,0.609,0.764,2.517,0.79,3.15
			c-0.046,0.03-0.491-1.622-0.548-1.732c0,0.188-0.047,0.117-0.139-0.213c0.041,0.293,0.117,0.579,0.229,0.854
			c-0.082-0.134-0.137-0.278-0.166-0.433c-0.088,0.4,0.655,2.298,0.361,1.994c-0.045,0.183,0.142,0.79,0.184,0.944
			c-0.645-0.203-0.139-2.339-0.772-2.733c-0.151-0.094-0.958-2.586-1.281-3.151c-0.669-1.853,0.516,2.065,0.581,2.482
			c-0.554-0.563-0.854-1.789-1.244-2.468c-2.426,6.441-1.826,15.336-1.648,22.421c-0.016-0.002-0.217-0.041-0.184,0.308
			c-0.1-0.005-0.135-0.422-0.236-0.902c-0.098,0.327-0.199,0.888-0.23,0.985c-0.195-0.366-0.17-1.21-0.205-1.614
			c-0.818,3.522-0.064,9.705,0.677,13.642c0.016,0.053,0.319,2.867,2.185,2.901c1.387,0.025,2.938-0.613,3.976-1.519
			C106.815,41.511,107.364,39.851,107.469,37.002"/>
		<path fill="#231F20" d="M118.868,36.933c-0.472-7.051,0.104-14.194-1.273-21.167c-0.046-0.533-0.278-2.1-0.342-2.612
			c-0.063-0.531-0.14-1.06-0.214-1.59c-0.03-0.221-0.232-2.354-0.46-2.354c-0.031,0.012,0.429,2.679,0.332,2.769
			c-0.106,0.099-0.182-2.495-0.726-3.095c0,0.277,0.107,1.099,0.129,1.213c0.091,0.468,0.396,2.629,0.44,2.939
			c0.034,0.24,0.011,0.705-0.021,0.504c-0.023-0.005-0.056-0.219-0.075-0.465c-0.019-0.225-0.677-4.314-0.79-4.896
			c-0.043,0.246-0.083,0.394-0.063,0.348c-0.017,0.354,0.599,2.976,0.434,3.088c-0.107,0.006-0.271-1.395-0.283-1.509
			c-0.023-0.174-0.171-0.672-0.171-0.669c-0.127,0.225,0.171,2.816,0.09,3.147c-0.255-0.178-0.536-3.813-0.549-3.879
			c-0.038-0.2-0.405-1.543-0.507-1.833c0.032,0.081-0.166-0.35-0.237-0.311c0.075,0.197,0.556,2.564,0.358,2.69
			c-0.205-0.247-0.438-2.168-0.719-2.307c-0.219,0.002-0.305-0.14-0.528,0.154c-0.226,0.293-1.293,4.154-1.352,4.445
			c-0.097,0.484-0.508,2.892-0.663,3.601c-0.132,0.599-0.29,3.834-0.394,4.904c-0.054,0.537-0.124,1.073-0.193,1.608
			c-0.028,0.222-0.037,0.447-0.086,0.665c-0.112,0.501,0.014,1.351,0.014,1.928c0.346-0.847-0.006,2.091-0.064,1.963
			c-0.015,0.175-0.021,0.177-0.174-0.161c0.023,0.587-0.258,2.364-0.291,2.544c-0.032-0.208-0.112-1.065-0.17-1.43
			c-0.007,0.119-0.081-0.406-0.081-0.535c-0.044,0.133-0.167,0.782-0.158,0.86c0.091,0.88-0.185,4.916-0.212,4.7
			c0.004-0.01-0.029,0.016-0.057-0.09c-0.01,0.049-0.181-0.401-0.175-0.403c-0.061,0.209-0.144,0.415-0.186,0.351
			c-0.006,0.13-0.114-0.339-0.141-0.56c-0.083,0.281-0.006,0.858-0.032,0.86c0.002-0.001-0.037,2.466-0.059,2.366
			c-0.008-0.014,0.031,0.446,0.003,0.073c0.075,0.114-0.077,0.211-0.038,0.341c-0.094-0.219-0.102-0.443-0.209-0.57
			c-0.088,0.089,0.03,1.487,0.058,1.884c-0.125,1.012,0.291,2.948,0.449,4.177c0.087,0.664,0.132,1.34,0.325,1.985
			c0.092,0.309,0.221,0.611,0.41,0.873c0.116,0.163,1.246,0.936,2.508,0.936c1.396,0,2.064-0.31,2.984-0.834
			C118.101,42.221,119.042,39.579,118.868,36.933"/>
	</g>
	<g>
		<g>
			<path fill="#231F20" d="M17.968,86.414c1.141,0.158,2.281,0.443,3.422,0.857s2.175,0.994,3.102,1.743
				c0.927,0.748,1.675,1.685,2.247,2.807c0.57,1.123,0.855,2.452,0.855,3.988c0,1.735-0.294,3.291-0.882,4.668
				c-0.589,1.381-1.426,2.542-2.514,3.487c-1.087,0.945-2.398,1.675-3.93,2.186c-1.534,0.514-3.226,0.769-5.079,0.769H6.739
				c-0.607,0-1.293,0.02-2.06,0.06c-0.767,0.039-1.489,0.078-2.165,0.119c-0.786,0.038-1.587,0.078-2.408,0.118
				c-0.035-0.08-0.053-0.198-0.053-0.356C0.018,106.781,0,106.683,0,106.564s0-0.216,0-0.295c0-0.553,0.195-0.866,0.588-0.946
				c1.391-0.314,2.353-0.62,2.887-0.915c0.535-0.295,0.803-0.837,0.803-1.625V72.705c0-0.395-0.062-0.72-0.187-0.977
				c-0.125-0.256-0.331-0.472-0.616-0.649c-0.285-0.178-0.66-0.334-1.122-0.473c-0.464-0.139-1.052-0.287-1.765-0.443
				C0.196,70.085,0,69.711,0,69.04c0-0.196,0.018-0.355,0.053-0.473c0-0.119,0.018-0.236,0.053-0.354
				c1.07,0.078,2.22,0.148,3.45,0.207c1.229,0.059,2.272,0.089,3.128,0.089h6.578c1.996,0,3.698,0.246,5.106,0.737
				c1.409,0.493,2.558,1.173,3.449,2.039c0.891,0.868,1.542,1.862,1.951,2.984c0.41,1.124,0.616,2.296,0.616,3.517
				c0,0.906-0.16,1.793-0.482,2.659c-0.32,0.867-0.757,1.675-1.31,2.423c-0.553,0.75-1.222,1.419-2.005,2.011
				c-0.784,0.59-1.657,1.043-2.62,1.358V86.414z M10.107,85.646c3.136,0,5.391-0.61,6.764-1.832
				c1.372-1.222,2.059-3.151,2.059-5.792c0-2.401-0.687-4.185-2.059-5.346c-1.373-1.163-3.628-1.745-6.764-1.745H9.305v14.715
				H10.107z M9.305,102.368c0,0.435,0.124,0.79,0.374,1.064c0.249,0.276,0.562,0.493,0.937,0.65
				c0.373,0.157,0.775,0.266,1.204,0.325c0.426,0.059,0.836,0.088,1.229,0.088c1.354,0,2.584-0.116,3.689-0.354
				s2.05-0.649,2.835-1.241c0.784-0.591,1.39-1.389,1.817-2.394c0.428-1.005,0.642-2.275,0.642-3.813
				c0-2.836-0.882-4.982-2.647-6.439c-1.765-1.459-4.18-2.188-7.246-2.188H9.305V102.368z"/>
			<path fill="#231F20" d="M50.641,89.664h-3.958v13c0,0.867,0.366,1.459,1.097,1.773c0.73,0.316,1.845,0.571,3.342,0.768
				c0.428,0.081,0.642,0.414,0.642,1.006c0,0.275-0.036,0.61-0.107,1.005c-0.962-0.08-2.13-0.147-3.503-0.208
				c-1.372-0.059-2.718-0.089-4.036-0.089c-0.928,0-1.998,0.03-3.209,0.089c-1.212,0.061-2.354,0.128-3.423,0.208
				c-0.072-0.395-0.106-0.709-0.106-0.946c0-0.553,0.195-0.866,0.587-0.946c1.354-0.235,2.308-0.521,2.861-0.856
				c0.553-0.334,0.829-0.896,0.829-1.684V72.705c0-0.749-0.259-1.312-0.775-1.685c-0.518-0.374-1.524-0.66-3.022-0.857
				c-0.356-0.039-0.535-0.375-0.535-1.004c0-0.236,0.035-0.551,0.107-0.945c1.069,0.078,2.174,0.148,3.316,0.207
				c1.141,0.059,2.227,0.089,3.261,0.089h7.219c3.851,0,6.755,0.936,8.717,2.807c1.96,1.871,2.941,4.402,2.941,7.594
				c0,0.866-0.133,1.772-0.401,2.719c-0.268,0.945-0.677,1.87-1.229,2.776c-0.553,0.907-1.267,1.744-2.139,2.512
				c-0.875,0.77-1.899,1.389-3.075,1.861l8.931,13.71c0.677,1.025,1.425,1.735,2.246,2.127c0.819,0.395,1.585,0.69,2.299,0.888
				c0.321,0.08,0.482,0.354,0.482,0.827c0,0.315-0.036,0.67-0.108,1.063c-0.82-0.08-1.818-0.147-2.994-0.207
				c-1.177-0.059-2.266-0.088-3.263-0.088c-0.749,0-1.506-0.355-2.273-1.064c-0.766-0.71-1.488-1.614-2.166-2.719L50.641,89.664z
				 M49.517,87.241c2.495,0,4.42-0.581,5.775-1.743c1.354-1.162,2.032-3.201,2.032-6.116c0-1.221-0.143-2.344-0.428-3.368
				c-0.286-1.023-0.74-1.911-1.364-2.66c-0.624-0.748-1.444-1.339-2.459-1.773c-1.017-0.433-2.256-0.649-3.717-0.649h-2.674v16.311
				H49.517z"/>
			<path fill="#231F20" d="M97.859,92.854H85.934l-3.423,9.514c-0.179,0.474-0.268,0.868-0.268,1.184
				c0,0.828,1.087,1.419,3.261,1.771c0.25,0.041,0.42,0.147,0.51,0.326c0.088,0.178,0.133,0.384,0.133,0.62
				c0,0.237-0.035,0.552-0.107,0.946c-0.962-0.08-1.979-0.147-3.047-0.208c-1.069-0.059-2.122-0.089-3.156-0.089
				c-0.713,0-1.443,0.02-2.192,0.06c-0.749,0.039-1.533,0.119-2.353,0.237c-0.072-0.315-0.106-0.631-0.106-0.946
				c0-0.275,0.043-0.512,0.132-0.709c0.089-0.196,0.276-0.314,0.562-0.355c1.105-0.196,1.934-0.442,2.487-0.738
				c0.553-0.295,0.953-0.758,1.203-1.389l12.888-34.274c0.248-0.669,0.588-1.004,1.016-1.004c0.143,0,0.356,0.04,0.643,0.119
				l12.94,35.338c0.214,0.552,0.695,0.984,1.444,1.3c0.748,0.316,1.479,0.532,2.191,0.649c0.215,0.081,0.383,0.188,0.508,0.326
				s0.188,0.383,0.188,0.738c0,0.237-0.035,0.552-0.107,0.946c-1.141-0.08-2.264-0.147-3.368-0.208
				c-1.104-0.059-2.139-0.089-3.101-0.089c-1,0-2.141,0.03-3.424,0.089c-1.282,0.061-2.441,0.128-3.476,0.208
				c-0.071-0.395-0.106-0.709-0.106-0.946c0-0.355,0.063-0.601,0.187-0.738s0.24-0.208,0.348-0.208
				c0.927-0.196,1.675-0.422,2.246-0.68c0.57-0.255,0.856-0.639,0.856-1.15c0-0.237-0.072-0.532-0.215-0.888L97.859,92.854z
				 M97.002,90.433l-4.974-14.478l-5.187,14.478H97.002z"/>
			<path fill="#231F20" d="M137.43,86.414c1.14,0.158,2.281,0.443,3.422,0.857s2.175,0.994,3.102,1.743
				c0.927,0.748,1.676,1.685,2.247,2.807c0.568,1.123,0.854,2.452,0.854,3.988c0,1.735-0.294,3.291-0.882,4.668
				c-0.589,1.381-1.426,2.542-2.513,3.487c-1.088,0.945-2.398,1.675-3.932,2.186c-1.533,0.514-3.226,0.769-5.08,0.769H126.2
				c-0.607,0-1.294,0.02-2.059,0.06c-0.769,0.039-1.49,0.078-2.166,0.119c-0.784,0.038-1.588,0.078-2.407,0.118
				c-0.036-0.08-0.054-0.198-0.054-0.356c-0.035-0.078-0.052-0.177-0.052-0.295s0-0.216,0-0.295c0-0.553,0.195-0.866,0.587-0.946
				c1.392-0.314,2.354-0.62,2.889-0.915c0.534-0.295,0.801-0.837,0.801-1.625V72.705c0-0.395-0.062-0.72-0.187-0.977
				c-0.125-0.256-0.329-0.472-0.614-0.649c-0.287-0.178-0.661-0.334-1.123-0.473c-0.464-0.139-1.053-0.287-1.766-0.443
				c-0.392-0.078-0.587-0.452-0.587-1.123c0-0.196,0.017-0.355,0.052-0.473c0-0.119,0.018-0.236,0.054-0.354
				c1.069,0.078,2.221,0.148,3.449,0.207c1.229,0.059,2.272,0.089,3.128,0.089h6.579c1.996,0,3.696,0.246,5.105,0.737
				c1.409,0.493,2.559,1.173,3.449,2.039c0.891,0.868,1.542,1.862,1.952,2.984c0.41,1.124,0.615,2.296,0.615,3.517
				c0,0.906-0.161,1.793-0.481,2.659c-0.321,0.867-0.759,1.675-1.31,2.423c-0.554,0.75-1.223,1.419-2.006,2.011
				c-0.785,0.59-1.658,1.043-2.62,1.358V86.414z M129.57,85.646c3.137,0,5.391-0.61,6.764-1.832
				c1.372-1.222,2.059-3.151,2.059-5.792c0-2.401-0.687-4.185-2.059-5.346c-1.373-1.163-3.627-1.745-6.764-1.745h-0.803v14.715
				H129.57z M128.767,102.368c0,0.435,0.125,0.79,0.375,1.064c0.248,0.276,0.561,0.493,0.936,0.65
				c0.374,0.157,0.774,0.266,1.202,0.325c0.429,0.059,0.837,0.088,1.231,0.088c1.354,0,2.583-0.116,3.689-0.354
				c1.104-0.237,2.05-0.649,2.834-1.241c0.784-0.591,1.39-1.389,1.817-2.394s0.642-2.275,0.642-3.813
				c0-2.836-0.882-4.982-2.647-6.439c-1.765-1.459-4.179-2.188-7.245-2.188h-2.834V102.368z"/>
			<path fill="#231F20" d="M174.756,86.414c1.139,0.158,2.28,0.443,3.421,0.857s2.175,0.994,3.103,1.743
				c0.926,0.748,1.675,1.685,2.246,2.807c0.568,1.123,0.854,2.452,0.854,3.988c0,1.735-0.294,3.291-0.882,4.668
				c-0.589,1.381-1.427,2.542-2.513,3.487c-1.088,0.945-2.398,1.675-3.932,2.186c-1.532,0.514-3.227,0.769-5.08,0.769h-8.448
				c-0.607,0-1.293,0.02-2.06,0.06c-0.767,0.039-1.489,0.078-2.165,0.119c-0.784,0.038-1.586,0.078-2.406,0.118
				c-0.037-0.08-0.054-0.198-0.054-0.356c-0.036-0.078-0.053-0.177-0.053-0.295s0-0.216,0-0.295c0-0.553,0.195-0.866,0.587-0.946
				c1.392-0.314,2.354-0.62,2.889-0.915s0.801-0.837,0.801-1.625V72.705c0-0.395-0.062-0.72-0.187-0.977
				c-0.125-0.256-0.33-0.472-0.614-0.649c-0.287-0.178-0.66-0.334-1.124-0.473c-0.463-0.139-1.052-0.287-1.765-0.443
				c-0.392-0.078-0.587-0.452-0.587-1.123c0-0.196,0.017-0.355,0.053-0.473c0-0.119,0.017-0.236,0.054-0.354
				c1.068,0.078,2.22,0.148,3.448,0.207c1.231,0.059,2.272,0.089,3.129,0.089h6.577c1.997,0,3.698,0.246,5.107,0.737
				c1.408,0.493,2.558,1.173,3.448,2.039c0.891,0.868,1.543,1.862,1.953,2.984c0.409,1.124,0.614,2.296,0.614,3.517
				c0,0.906-0.16,1.793-0.481,2.659c-0.321,0.867-0.757,1.675-1.31,2.423c-0.553,0.75-1.223,1.419-2.005,2.011
				c-0.786,0.59-1.659,1.043-2.62,1.358V86.414z M166.894,85.646c3.138,0,5.393-0.61,6.765-1.832s2.059-3.151,2.059-5.792
				c0-2.401-0.687-4.185-2.059-5.346c-1.372-1.163-3.627-1.745-6.765-1.745h-0.802v14.715H166.894z M166.092,102.368
				c0,0.435,0.124,0.79,0.375,1.064c0.249,0.276,0.561,0.493,0.936,0.65s0.774,0.266,1.202,0.325
				c0.428,0.059,0.838,0.088,1.231,0.088c1.354,0,2.583-0.116,3.689-0.354c1.104-0.237,2.049-0.649,2.834-1.241
				c0.784-0.591,1.39-1.389,1.817-2.394s0.642-2.275,0.642-3.813c0-2.836-0.881-4.982-2.646-6.439
				c-1.765-1.459-4.18-2.188-7.246-2.188h-2.834V102.368z"/>
			<path fill="#231F20" d="M225.556,92.56c0,2.245-0.232,4.283-0.695,6.115c-0.465,1.833-1.239,3.42-2.326,4.758
				c-1.088,1.341-2.522,2.374-4.305,3.103c-1.783,0.729-4.01,1.094-6.686,1.094c-3.065,0-5.543-0.425-7.432-1.27
				c-1.891-0.848-3.343-1.961-4.359-3.34c-1.015-1.379-1.693-2.963-2.031-4.758c-0.339-1.791-0.508-3.614-0.508-5.465V72.705
				c0-0.789-0.25-1.36-0.749-1.715s-1.443-0.63-2.834-0.827c-0.356-0.039-0.534-0.375-0.534-1.004c0-0.236,0.035-0.551,0.106-0.945
				c1.068,0.078,2.166,0.148,3.289,0.207c1.123,0.059,2.199,0.089,3.236,0.089c0.925,0,2.012-0.03,3.261-0.089
				c1.247-0.059,2.407-0.128,3.477-0.207c0.07,0.394,0.106,0.709,0.106,0.945c0,0.629-0.18,0.965-0.535,1.004
				c-1.355,0.197-2.326,0.473-2.914,0.827c-0.589,0.354-0.883,0.926-0.883,1.715v18.791c0,4.099,0.739,7.239,2.22,9.426
				c1.479,2.187,3.983,3.279,7.513,3.279c1.995,0,3.69-0.246,5.08-0.738c1.392-0.492,2.531-1.251,3.423-2.275
				c0.891-1.023,1.532-2.354,1.925-3.988c0.391-1.635,0.588-3.595,0.588-5.881V72.705c0-0.789-0.267-1.36-0.802-1.715
				s-1.497-0.63-2.888-0.827c-0.393-0.039-0.588-0.375-0.588-1.004c0-0.236,0.035-0.551,0.105-0.945
				c1.035,0.078,2.042,0.148,3.022,0.207c0.98,0.059,1.826,0.089,2.54,0.089c0.855,0,1.721-0.03,2.595-0.089
				c0.872-0.059,1.736-0.128,2.593-0.207c0.069,0.394,0.106,0.709,0.106,0.945c0,0.197-0.054,0.404-0.16,0.62
				c-0.106,0.218-0.25,0.346-0.428,0.385c-1.319,0.156-2.237,0.424-2.754,0.798c-0.517,0.375-0.775,0.955-0.775,1.744V92.56z"/>
		</g>
		<g>
			<path fill="#231F20" d="M45.057,127.348c-0.86-1.153-2.056-1.767-3.454-1.759h-3.587v11.373h3.587
				c1.406,0.008,2.606-0.605,3.467-1.758l0-0.002c0.809-1.082,1.207-2.412,1.206-3.941c0.001-1.52-0.403-2.843-1.22-3.914
				L45.057,127.348z M43.872,134.482c-0.671,0.741-1.396,1.079-2.269,1.084h-2.262v-8.596h2.262c1.024,0.007,1.789,0.4,2.434,1.262
				L44.354,128l-0.316,0.233c0.595,0.805,0.9,1.796,0.901,3.027C44.936,132.646,44.573,133.695,43.872,134.482z"/>
			<polygon fill="#231F20" points="51.887,136.962 52.281,136.962 57.276,136.962 57.276,135.96 57.276,135.566 53.225,135.566 
				53.225,131.491 57.276,131.491 57.276,130.445 57.276,130.051 53.225,130.051 53.225,126.985 57.276,126.985 57.276,125.983 
				57.276,125.589 51.887,125.589 			"/>
			<polygon fill="#231F20" points="74.814,125.589 74.814,136.962 75.208,136.962 75.744,136.962 76.138,136.962 76.138,125.589 
				75.208,125.589 			"/>
			<polygon fill="#231F20" points="68.264,131.452 68.264,131.453 68.267,131.456 			"/>
			<path fill="#231F20" d="M67.456,130.776c-0.324-0.214-0.699-0.427-1.132-0.64l0.002,0.001c-0.65-0.324-1.084-0.59-1.25-0.738
				c-0.325-0.317-0.46-0.631-0.464-1.029c0.005-0.479,0.144-0.799,0.437-1.075l0.002-0.002c0.277-0.254,0.598-0.38,1.046-0.382
				c0.445,0,0.765,0.097,0.996,0.256l0.007,0.005l0.007,0.004c0.183,0.115,0.354,0.3,0.508,0.582l0.18,0.328l1.22-0.586
				l-0.179-0.358c-0.26-0.521-0.63-0.938-1.099-1.209c-0.47-0.274-1.024-0.403-1.641-0.403c-0.765-0.003-1.456,0.269-1.987,0.789
				c0,0,0,0-0.001,0.001c-0.001,0.002-0.003,0.003-0.005,0.004l0.001,0.001c-0.554,0.518-0.835,1.234-0.83,2.046
				c-0.005,0.809,0.269,1.523,0.813,2.042l-0.001,0.001c0.001,0.002,0.005,0.003,0.006,0.005c0,0.001,0,0.001,0,0.001
				c0.342,0.333,0.881,0.662,1.655,1.046c0.396,0.196,0.718,0.368,0.96,0.517c0.245,0.148,0.416,0.28,0.502,0.37l0,0.001
				l0.005,0.004c0.399,0.397,0.588,0.855,0.592,1.469c-0.003,0.675-0.177,1.11-0.482,1.405c-0.308,0.292-0.73,0.451-1.35,0.455
				c-0.538-0.002-0.923-0.136-1.224-0.384c-0.298-0.249-0.531-0.639-0.675-1.215l-0.106-0.431l-1.301,0.491l0.096,0.345
				c0.224,0.82,0.603,1.478,1.154,1.926s1.256,0.664,2.056,0.662c0.511,0,0.973-0.073,1.38-0.236l0.005-0.002
				c0.582-0.238,1.046-0.628,1.347-1.147c0.302-0.519,0.439-1.147,0.439-1.869c0.003-0.921-0.294-1.736-0.882-2.372
				C68.048,131.215,67.778,130.993,67.456,130.776z"/>
			<path fill="#231F20" d="M87.315,132.061v0.395h3.094c-0.137,0.695-0.43,1.324-0.91,1.902l-0.002,0.002
				c-0.758,0.912-1.701,1.348-2.955,1.354c-1.166-0.005-2.086-0.403-2.863-1.237c-0.75-0.834-1.127-1.874-1.129-3.201
				c0.002-1.316,0.383-2.358,1.146-3.206c0.769-0.841,1.681-1.241,2.847-1.247c0.719,0.001,1.336,0.15,1.875,0.44
				c0.538,0.293,1.004,0.731,1.403,1.338l0.243,0.37l1.055-0.883l-0.199-0.295c-1.035-1.546-2.547-2.361-4.377-2.353
				c-1.525-0.005-2.839,0.564-3.834,1.672c-0.992,1.093-1.486,2.507-1.482,4.163c-0.004,1.674,0.488,3.098,1.482,4.192
				c0.98,1.09,2.295,1.646,3.834,1.642c1.611,0.006,2.973-0.59,3.961-1.753c0.914-1.061,1.371-2.385,1.369-3.903v-0.394h-4.557
				V132.061z"/>
			<polygon fill="#231F20" points="104.713,125.589 104.713,134.018 97.563,124.754 97.563,136.962 98.494,136.962 98.888,136.962 
				98.888,128.728 106.051,137.89 106.051,125.589 105.108,125.589 			"/>
			<polygon fill="#231F20" points="121.293,136.962 122.223,136.962 122.616,136.962 122.616,131.448 126.24,131.448 
				126.24,130.445 126.24,130.051 122.616,130.051 122.616,126.985 126.24,126.985 126.24,125.983 126.24,125.589 121.293,125.589 
							"/>
			<path fill="#231F20" d="M140.974,127.083l-0.003-0.003c-0.997-1.087-2.313-1.645-3.846-1.64c-1.539-0.005-2.858,0.56-3.846,1.655
				c-0.985,1.087-1.474,2.506-1.47,4.18c-0.004,1.674,0.488,3.098,1.481,4.192c0.982,1.09,2.297,1.646,3.834,1.642
				c1.54,0.005,2.859-0.558,3.849-1.655l-0.001,0.001c0.993-1.087,1.485-2.506,1.483-4.18
				C142.458,129.601,141.966,128.178,140.974,127.083z M140.002,134.505c-0.755,0.812-1.679,1.204-2.877,1.209
				c-1.186-0.006-2.103-0.404-2.86-1.233c-0.74-0.822-1.116-1.865-1.118-3.205c0.003-1.339,0.382-2.386,1.133-3.22
				c0.757-0.83,1.67-1.228,2.846-1.233c1.196,0.006,2.117,0.405,2.875,1.233c0.74,0.822,1.116,1.87,1.119,3.22
				C141.116,132.635,140.741,133.686,140.002,134.505z"/>
			<path fill="#231F20" d="M152.311,131.495c0.372-0.119,0.704-0.311,0.984-0.566c0.285-0.262,0.503-0.595,0.651-0.979
				c0.15-0.394,0.221-0.842,0.221-1.342c0-0.468-0.077-0.898-0.24-1.282c-0.155-0.367-0.372-0.69-0.646-0.953
				c-0.274-0.262-0.604-0.46-0.972-0.591c-0.366-0.128-0.752-0.192-1.151-0.192h-2.607v11.373h0.931h0.394v-5.293h0.411l3.046,5.293
				h0.228h0.645h0.684l-3.103-5.346C151.965,131.588,152.141,131.549,152.311,131.495z M149.874,130.273v-3.288h1.271
				c0.248,0,0.47,0.036,0.681,0.105c0.204,0.068,0.376,0.167,0.521,0.294c0.14,0.121,0.252,0.275,0.339,0.479v0.002
				c0.082,0.19,0.13,0.431,0.13,0.727c-0.002,0.607-0.154,0.999-0.416,1.263c-0.277,0.276-0.615,0.414-1.108,0.418H149.874z"/>
			<path fill="#231F20" d="M167.758,125.873l-0.007-0.003l-0.001-0.001c-0.715-0.288-1.509-0.429-2.374-0.429
				c-1.54-0.005-2.859,0.56-3.847,1.655c-0.986,1.087-1.473,2.506-1.471,4.18c-0.002,1.674,0.491,3.098,1.483,4.192
				c0.98,1.09,2.295,1.646,3.834,1.642c0.13,0,0.257-0.002,0.381-0.008l-0.003,0.001c0.124-0.006,0.239-0.015,0.343-0.024h0.004
				c0.911-0.095,1.668-0.36,2.245-0.827l0.792-0.637v-0.884v-0.82l-0.641,0.511c-0.505,0.407-0.921,0.696-1.229,0.865
				c-0.523,0.281-1.148,0.428-1.893,0.428c-1.187-0.006-2.103-0.404-2.86-1.233c-0.741-0.822-1.116-1.865-1.119-3.205
				c0.003-1.339,0.382-2.386,1.133-3.22c0.758-0.83,1.671-1.228,2.847-1.233c0.688,0,1.341,0.141,1.972,0.424
				c0.407,0.19,0.782,0.443,1.129,0.762l0.661,0.608v-1.836l-0.139-0.117C168.608,126.323,168.193,126.059,167.758,125.873z"/>
			<polygon fill="#231F20" points="174.507,136.962 174.903,136.962 179.897,136.962 179.897,135.96 179.897,135.566 
				175.844,135.566 175.844,131.491 179.897,131.491 179.897,130.445 179.897,130.051 175.844,130.051 175.844,126.985 
				179.897,126.985 179.897,125.983 179.897,125.589 174.507,125.589 			"/>
			<path fill="#231F20" d="M190.161,131.452l0.002,0.004c-0.216-0.239-0.487-0.462-0.811-0.68c-0.323-0.214-0.699-0.427-1.132-0.64
				l0.002,0.001c-0.648-0.323-1.08-0.587-1.248-0.736c-0.325-0.318-0.461-0.632-0.465-1.031c0.005-0.479,0.144-0.799,0.436-1.075
				l0.002-0.002c0.277-0.255,0.599-0.38,1.046-0.382c0.445,0,0.767,0.097,0.997,0.256l0.006,0.005l0.007,0.004
				c0.183,0.115,0.354,0.3,0.509,0.582l0.18,0.328l1.222-0.586l-0.18-0.358c-0.259-0.521-0.631-0.938-1.101-1.209
				c-0.468-0.274-1.022-0.403-1.64-0.403c-0.766-0.003-1.455,0.269-1.986,0.789h-0.001c0,0,0,0.002-0.002,0.004
				c-0.001,0-0.003,0.001-0.004,0.001h0.001c-0.554,0.519-0.835,1.235-0.83,2.047c-0.004,0.809,0.271,1.524,0.814,2.042
				l-0.001,0.001c0.002,0.002,0.004,0.003,0.006,0.005c0,0.001,0,0.001,0,0.001c0.341,0.333,0.879,0.662,1.653,1.046
				c0.397,0.196,0.719,0.368,0.963,0.518c0.242,0.147,0.413,0.278,0.501,0.37l0.005,0.004c0.399,0.397,0.589,0.855,0.593,1.469
				c-0.002,0.675-0.177,1.11-0.482,1.405c-0.308,0.292-0.729,0.451-1.351,0.455c-0.537-0.002-0.924-0.136-1.223-0.384
				c-0.299-0.249-0.53-0.639-0.675-1.215l-0.106-0.431l-1.301,0.491l0.095,0.345c0.224,0.82,0.603,1.478,1.154,1.926
				c0.55,0.448,1.257,0.664,2.056,0.662c0.512,0,0.973-0.073,1.381-0.236l0.004-0.002c0.582-0.238,1.048-0.628,1.348-1.147
				c0.301-0.519,0.439-1.147,0.439-1.869C191.047,132.904,190.749,132.088,190.161,131.452z"/>
		</g>
	</g>
</g>
</svg>
