<?xml version="1.0" encoding="utf-8"?>
<!-- Generator: Adobe Illustrator 15.1.0, SVG Export Plug-In . SVG Version: 6.00 Build 0)  -->
<!DOCTYPE svg PUBLIC "-//W3C//DTD SVG 1.1//EN" "http://www.w3.org/Graphics/SVG/1.1/DTD/svg11.dtd">
<svg version="1.1" id="Livello_1" xmlns="http://www.w3.org/2000/svg" xmlns:xlink="http://www.w3.org/1999/xlink" x="0px" y="0px"
	 width="434.929px" height="115.206px" viewBox="0 0 434.929 115.206" enable-background="new 0 0 434.929 115.206"
	 xml:space="preserve">
<g>
	<path d="M16.287,93.746L3,37.11h11.503l8.39,38.903L33.067,37.11H46.43l9.756,39.56l8.542-39.56h11.313L62.526,93.746h-11.92
		L39.521,51.404L28.474,93.746H16.287z"/>
	<path d="M86.785,65.235l-9.681-1.777c1.088-3.966,2.961-6.902,5.619-8.808c2.658-1.906,6.605-2.859,11.845-2.859
		c4.758,0,8.301,0.573,10.63,1.719c2.328,1.146,3.967,2.602,4.916,4.365c0.949,1.765,1.424,5.003,1.424,9.716l-0.114,12.672
		c0,3.605,0.171,6.265,0.513,7.978s0.98,3.548,1.917,5.505h-10.554c-0.279-0.721-0.621-1.79-1.025-3.206
		c-0.177-0.644-0.304-1.069-0.38-1.275c-1.822,1.803-3.771,3.155-5.846,4.057c-2.076,0.901-4.29,1.352-6.644,1.352
		c-4.151,0-7.422-1.146-9.813-3.438s-3.587-5.189-3.587-8.692c0-2.318,0.544-4.385,1.632-6.201c1.088-1.815,2.613-3.207,4.575-4.172
		c1.961-0.966,4.789-1.809,8.484-2.53c4.986-0.953,8.44-1.841,10.364-2.666v-1.082c0-2.086-0.507-3.573-1.519-4.462
		c-1.013-0.889-2.923-1.333-5.732-1.333c-1.898,0-3.379,0.38-4.442,1.14S87.443,63.33,86.785,65.235z M101.059,74.043
		c-1.367,0.464-3.531,1.018-6.492,1.662c-2.961,0.644-4.897,1.274-5.809,1.893c-1.392,1.004-2.088,2.279-2.088,3.824
		c0,1.521,0.557,2.834,1.67,3.94c1.113,1.108,2.53,1.662,4.252,1.662c1.923,0,3.758-0.644,5.504-1.932
		c1.291-0.979,2.139-2.177,2.544-3.594c0.278-0.927,0.417-2.69,0.417-5.292V74.043z"/>
	<path d="M122.053,93.746V37.11h10.667v56.636H122.053z"/>
	<path d="M143.654,93.746V37.11h10.667v56.636H143.654z"/>
</g>
<g>
	<path d="M298.598,92.511v-5.19c-2.55,4.08-6.298,6.12-11.244,6.12c-3.206,0-6.152-0.904-8.84-2.712
		c-2.688-1.807-4.771-4.331-6.247-7.572s-2.215-6.967-2.215-11.176c0-4.106,0.668-7.831,2.007-11.175
		c1.337-3.344,3.344-5.907,6.02-7.689c2.675-1.782,5.666-2.673,8.973-2.673c2.423,0,4.581,0.523,6.474,1.569
		c1.894,1.046,3.433,2.408,4.619,4.087V35.724h6.777v56.787H298.598z M277.056,71.98c0,5.269,1.085,9.207,3.256,11.814
		c2.171,2.608,4.732,3.912,7.686,3.912c2.978,0,5.509-1.245,7.591-3.737s3.123-6.295,3.123-11.408c0-5.629-1.06-9.761-3.18-12.396
		c-2.12-2.634-4.732-3.951-7.837-3.951c-3.029,0-5.56,1.265-7.591,3.796C278.071,62.542,277.056,66.532,277.056,71.98z"/>
	<path d="M343.158,79.263l7.042,0.892c-1.11,4.209-3.168,7.476-6.171,9.8c-3.004,2.324-6.84,3.486-11.51,3.486
		c-5.881,0-10.544-1.853-13.988-5.559c-3.445-3.705-5.168-8.902-5.168-15.591c0-6.92,1.741-12.292,5.225-16.114
		c3.482-3.821,8.001-5.733,13.554-5.733c5.376,0,9.768,1.873,13.175,5.617c3.407,3.745,5.111,9.013,5.111,15.804
		c0,0.414-0.013,1.033-0.038,1.859h-29.984c0.252,4.52,1.501,7.979,3.748,10.382c2.246,2.401,5.048,3.602,8.404,3.602
		c2.499,0,4.632-0.671,6.398-2.014S342.123,82.207,343.158,79.263z M320.783,67.991h22.451c-0.303-3.46-1.161-6.055-2.574-7.786
		c-2.171-2.686-4.985-4.029-8.443-4.029c-3.13,0-5.761,1.072-7.894,3.215S321.011,64.402,320.783,67.991z"/>
	<path d="M384.993,77.442l6.701,0.891c-0.732,4.727-2.606,8.426-5.622,11.099c-3.017,2.673-6.72,4.009-11.111,4.009
		c-5.503,0-9.926-1.84-13.271-5.52c-3.345-3.681-5.017-8.954-5.017-15.824c0-4.441,0.72-8.328,2.158-11.659
		c1.438-3.332,3.628-5.83,6.569-7.496c2.939-1.666,6.139-2.499,9.597-2.499c4.366,0,7.938,1.13,10.715,3.39
		c2.776,2.26,4.556,5.468,5.338,9.626l-6.625,1.045c-0.632-2.763-1.748-4.842-3.351-6.236c-1.604-1.395-3.54-2.092-5.812-2.092
		c-3.433,0-6.223,1.259-8.367,3.777c-2.146,2.518-3.218,6.501-3.218,11.95c0,5.526,1.034,9.542,3.104,12.047
		c2.069,2.505,4.77,3.757,8.102,3.757c2.675,0,4.909-0.839,6.701-2.518C383.378,83.512,384.514,80.929,384.993,77.442z"/>
	<path d="M394.988,71.942c0-7.618,2.069-13.26,6.209-16.928c3.458-3.047,7.673-4.571,12.646-4.571
		c5.527,0,10.045,1.854,13.554,5.559c3.508,3.706,5.263,8.826,5.263,15.359c0,5.294-0.776,9.458-2.328,12.493
		c-1.553,3.034-3.812,5.391-6.777,7.069c-2.966,1.678-6.203,2.518-9.711,2.518c-5.629,0-10.179-1.846-13.648-5.539
		C396.724,84.209,394.988,78.889,394.988,71.942z M401.992,71.942c0,5.268,1.123,9.213,3.37,11.833
		c2.246,2.622,5.073,3.932,8.48,3.932c3.382,0,6.196-1.316,8.442-3.95c2.246-2.635,3.37-6.649,3.37-12.047
		c0-5.087-1.13-8.941-3.389-11.563s-5.067-3.932-8.424-3.932c-3.407,0-6.234,1.304-8.48,3.912
		C403.115,62.736,401.992,66.674,401.992,71.942z M418.424,46.26h-5.49l-8.745-10.846h9.124L418.424,46.26z"/>
</g>
<g>
	<path d="M258.563,103.142l-16.128,9.473c-2.932-3.214-4.681-5.47-7.895-9.812c-4.228,3.87-7.67,5.661-12.419,7.5
		c-4.75,1.837-10.402,2.756-16.957,2.756c-13.015,0-22.799-3.724-29.354-11.173c-5.083-5.755-7.624-12.381-7.624-19.879
		c0-6.819,1.995-12.95,5.985-18.391c3.99-5.441,9.95-10.168,17.883-14.184c-3.563-4.304-6.247-8.403-8.051-12.297
		c-1.806-3.893-2.708-7.582-2.708-11.064c0-6.432,2.529-11.886,7.588-16.36C193.942,5.238,201.149,3,210.507,3
		c9.024,0,16.078,2.347,21.161,7.038c5.082,4.691,7.624,10.423,7.624,17.194c0,4.306-1.26,8.392-3.776,12.261
		c-2.518,3.87-7.6,8.248-15.247,13.132l14.535,19.516c1.71-3.095,3.181-7.134,4.417-12.116l18.097,4.208
		c-1.462,6.426-3.121,11.412-4.45,14.433c-1.33,3.023-3.102,6.147-5.752,9.361C249.427,90.904,255.63,99.477,258.563,103.142z
		 M202.457,62.492c-4.608,2.37-8.051,5.224-10.331,8.561c-2.28,3.337-3.42,6.748-3.42,10.23c0,4.401,1.413,7.992,4.239,10.773
		c2.826,2.782,6.614,4.171,11.364,4.171c3.135,0,6.15-0.627,9.048-1.886c2.896-1.257,6.056-3.337,9.476-6.239L202.457,62.492z
		 M210.294,40.363l5.415-4.208c3.99-3.144,5.985-6.263,5.985-9.359c0-2.612-0.962-4.836-2.885-6.675
		c-1.924-1.837-4.524-2.757-7.802-2.757c-3.183,0-5.677,0.811-7.481,2.431c-1.806,1.621-2.708,3.495-2.708,5.622
		c0,2.516,1.52,5.563,4.56,9.142L210.294,40.363z"/>
</g>
</svg>
